<svg width="24" height="24" viewBox="0 0 24 24" fill="#FF4C4C" xmlns="http://www.w3.org/2000/svg">
<g clip-path="url(#clip0)">
<path d="M4.01 0C2.94648 0 1.92652 0.422481 1.1745 1.1745C0.422481 1.92652 0 2.94648 0 4.01L0 19.99C0 22.2 1.8 23.99 4.01 24H19.99C22.2 24 24 22.2 24 19.99V4C23.9974 2.93822 23.5737 1.92082 22.822 1.17096C22.0702 0.421105 21.0518 -3.30154e-06 19.99 0L4 0H4.01ZM5.63 4.36H18.37C19.07 4.36 19.63 4.93 19.63 5.63V18.37C19.63 19.07 19.07 19.64 18.37 19.64H5.63C4.93 19.64 4.37 19.07 4.37 18.37V5.63C4.36999 5.2949 4.50242 4.97338 4.73843 4.73549C4.97444 4.49761 5.29491 4.36264 5.63 4.36V4.36ZM9.46 8.71C9.26639 8.71 9.08071 8.78691 8.94381 8.92381C8.80691 9.06071 8.73 9.24639 8.73 9.44V14.53C8.73 14.93 9.05 15.25 9.45 15.25H14.55C14.7419 15.25 14.9261 15.1745 15.0627 15.0397C15.1993 14.905 15.2774 14.7219 15.28 14.53V9.44C15.28 9.34413 15.2611 9.24921 15.2244 9.16064C15.1877 9.07207 15.134 8.9916 15.0662 8.92381C14.9984 8.85603 14.9179 8.80225 14.8294 8.76557C14.7408 8.72888 14.6459 8.71 14.55 8.71H9.45H9.46Z"/>
</g>
<defs>
<clipPath id="clip0">
<rect width="24" height="24" fill="white"/>
</clipPath>
</defs>
</svg>
